<svg xmlns="http://www.w3.org/2000/svg" viewBox="0 0 640 512" fill="currentColor"><!--! Font Awesome Free 6.6.0 by @fontawesome - https://fontawesome.com License - https://fontawesome.com/license/free Copyright 2024 Fonticons, Inc.--><path d="M602.6 262.1c8.2-3.6 18.6-5.2 18.6-5.2-1-4.1-15-11.7-15-11.7s-7.4 15.4-24 17.4c-4.9-11.2-10.2-22.2-14.6-32.6-12.9 13.5-27.7 27.1-43.8 40.1 7.8-23.8 12.4-47.7 12.4-70.4 0-51.4-21.1-93.6-64.1-120.1C454.9 42.3 391.7 32 340.1 32c-54.7 0-105.4 11.4-148.4 32.6-19.2 8.7-37.8 18.7-53.6 30-28.3 20.1-51 43.8-63.9 68.6-22.3 42.7-18.6 90.9-4.5 128.3C17.7 349.9 0 380.2 0 404.3c0 39.6 70.7 72.4 158.8 72.4 50.7 0 104.4-10.2 145.2-27.9 16.2-6.8 30.6-15.2 42.8-24.4 38.5-28.6 60.5-63.6 67.6-105.6 19.2 12 46.8 21.6 78.5 21.6 66.2 0 130.1-25.2 147.1-63.4-8.1-13.6-27.4-14.9-36.2-19.6zm-345.2 77c-22.4 0-44.4-4.2-61.7-11.4-28.3-11.5-41.4-27.9-35.1-40.5 6.6-12.9 32.3-19.8 70.6-17.4-5.5 12.5-8.7 26.7-8.7 41.8 0 10.5 1.8 20.4 5 29.5-8.4-.7-16.4-1.2-24.4-1.2zm212.8-22c0 19.8-10.8 37.1-31.1 52.7-10.7 7.9-23.9 14.8-38.6 20.4 8.5-15.8 14.1-34.2 14.1-54 0-45-23.8-86.6-60.9-118.4 21.7 18.8 42 38.2 57.3 59.1 31.7 42.3 38.4 89.7 38.4 118.4z"/></svg>
